.
 
http://www.scenetime.com    -  Hottest private tracker on the net. !!!

New release on http://www.scenetime.com

        Seed back for speed


...................................NFO:................................................. 
                          ______  _   _  _____ ______  _____  _____ 
                          | ___ \| | | ||  _  || ___ \|  _  |/  ___|
                          | |_/ /| |_| || | | || |_/ /| | | |\ `--. 
                          |  __/ |  _  || | | || ___ \| | | | `--. \
                          | |    | | | |\ \_/ /| |_/ /\ \_/ //\__/ /
                          \_|    \_| |_/ \___/ \____/  \___/ \____/ 
 
                              Proudly presents
   
        Starship.Troopers.1997.Dual.Audio.iNTERNAL.DVDRip.XviD-PHOBOS     
                                                                          
      Release Date .....: 21/Sep/2011                                     
      DVD RLS Date .....: 20/May/1998                                     
      Runtime ..........: 2:09:26                                         
      Language .........: English                                         
      Subs .............: English / French / Spanish                      
      URL ..............: http://www.imdb.com/title/tt0120201/            
      File Size ........: CD1: 701MB / 50x15MB CD2: 701MB / 50x15MB       
      Notes ............: Secondary audio is commentary from Paul         
      Verhoeven and screenwriter Ed Neumeier                              
                                                                          
      Summary   
                                                                          
      Humans of a fascistic, militaristic future do battle with giant     
      alien bugs in a fight for survival.                                 
                                                                          
     Tech Info  
                                                                          
      CD1:                                                                
      Video                                                               
      ID                               : 0                                
      Format                           : MPEG-4 Visual                    
      Format profile                   : Advanced Simple@L5               
      Format settings, BVOP            : No                               
      Format settings, QPel            : No                               
      Format settings, GMC             : No warppoints                    
      Format settings, Matrix          : Default (H.263)                  
      Codec ID                         : XVID                             
      Codec ID/Hint                    : XviD                             
      Duration                         : 1h 6mn                           
      Bit rate                         : 974 Kbps                         
      Width                            : 640 pixels                       
      Height                           : 352 pixels                       
      Display aspect ratio             : 16:9                             
      Frame rate                       : 23.976 fps                       
      Color space                      : YUV                              
      Chroma subsampling               : 4:2:0                            
      Bit depth                        : 8 bits                           
      Scan type                        : Progressive                      
      Compression mode                 : Lossy                            
      Bits/(Pixel*Frame)               : 0.180                            
      Stream size                      : 462 MiB (66%)                    
      Writing library                  : XviD 1.2.1 (UTC 2008-12-04)      
                                                                          
      Audio #1                                                            
      ID                               : 1                                
      Format                           : AC-3                             
      Format/Info                      : Audio Coding 3                   
      Mode extension                   : CM (complete main)               
      Codec ID                         : 2000                             
      Duration                         : 1h 6mn                           
      Bit rate mode                    : Constant                         
      Bit rate                         : 384 Kbps                         
      Channel(s)                       : 6 channels                       
      Channel positions                : Front: L C R, Side: L R, LFE     
      Sampling rate                    : 48.0 KHz                         
      Bit depth                        : 16 bits                          
      Compression mode                 : Lossy                            
      Stream size                      : 182 MiB (26%)                    
      Alignment                        : Split accross interleaves        
      Interleave, duration             : 42 ms (1.00 video frame)         
      Interleave, preload duration     : 500 ms                           
                                                                          
      Audio #2                                                            
      ID                               : 2                                
      Format                           : MPEG Audio                       
      Format version                   : Version 1                        
      Format profile                   : Layer 3                          
      Mode                             : Joint stereo                     
      Mode extension                   : MS Stereo                        
      Codec ID                         : 55                               
      Codec ID/Hint                    : MP3                              
      Duration                         : 1h 6mn                           
      Bit rate mode                    : Variable                         
      Bit rate                         : 98.3 Kbps                        
      Nominal bit rate                 : 128 Kbps                         
      Channel(s)                       : 2 channels                       
      Sampling rate                    : 48.0 KHz                         
      Compression mode                 : Lossy                            
      Stream size                      : 49.1 MiB (7%)                    
      Alignment                        : Aligned on interleaves           
      Interleave, duration             : 24 ms (0.58 video frame)         
      Interleave, preload duration     : 187 ms                           
      Writing library                  : LAME3.98r                        
                                                                          
      CD2:                                                                
      Video                                                               
      ID                               : 0                                
      Format                           : MPEG-4 Visual                    
      Format profile                   : Advanced Simple@L5               
      Format settings, BVOP            : No                               
      Format settings, QPel            : No                               
      Format settings, GMC             : No warppoints                    
      Format settings, Matrix          : Default (H.263)                  
      Codec ID                         : XVID                             
      Codec ID/Hint                    : XviD                             
      Duration                         : 1h 3mn                           
      Bit rate                         : 1 058 Kbps                       
      Width                            : 640 pixels                       
      Height                           : 352 pixels                       
      Display aspect ratio             : 16:9                             
      Frame rate                       : 23.976 fps                       
      Color space                      : YUV                              
      Chroma subsampling               : 4:2:0                            
      Bit depth                        : 8 bits                           
      Scan type                        : Progressive                      
      Compression mode                 : Lossy                            
      Bits/(Pixel*Frame)               : 0.196                            
      Stream size                      : 478 MiB (68%)                    
      Writing library                  : XviD 1.2.1 (UTC 2008-12-04)      
                                                                          
      Audio #1                                                            
      ID                               : 1                                
      Format                           : AC-3                             
      Format/Info                      : Audio Coding 3                   
      Mode extension                   : CM (complete main)               
      Codec ID                         : 2000                             
      Duration                         : 1h 3mn                           
      Bit rate mode                    : Constant                         
      Bit rate                         : 384 Kbps                         
      Channel(s)                       : 6 channels                       
      Channel positions                : Front: L C R, Side: L R, LFE     
      Sampling rate                    : 48.0 KHz                         
      Bit depth                        : 16 bits                          
      Compression mode                 : Lossy                            
      Delay relative to video          : 5ms                              
      Stream size                      : 173 MiB (25%)                    
      Alignment                        : Split accross interleaves        
      Interleave, duration             : 42 ms (1.00 video frame)         
      Interleave, preload duration     : 500 ms                           
                                                                          
      Audio #2                                                            
      ID                               : 2                                
      Format                           : MPEG Audio                       
      Format version                   : Version 1                        
      Format profile                   : Layer 3                          
      Mode                             : Joint stereo                     
      Mode extension                   : MS Stereo                        
      Codec ID                         : 55                               
      Codec ID/Hint                    : MP3                              
      Duration                         : 1h 3mn                           
      Bit rate mode                    : Variable                         
      Bit rate                         : 98.3 Kbps                        
      Channel(s)                       : 2 channels                       
      Sampling rate                    : 48.0 KHz                         
      Compression mode                 : Lossy                            
      Stream size                      : 42.0 MiB (6%)                    
      Alignment                        : Aligned on interleaves           
      Interleave, duration             : 24 ms (0.58 video frame)         
      Interleave, preload duration     : 535 ms                           
      Writing library                  : LAME3.98r                        
                                                                          
                                                                          
      Group Info   
                                                                          
      Our mission is to provide the scene with decent quality rips of     
      Movie classics.                                                     
      Greets fly out to GERUDO and everyone that helped us, you know who  
      you are guys.                                                       
      Looking for decent affil sites (no ovh plz) and rippers/cappers.    
      Ask around for us or write to deimostv@hush.ai